<svg id="easter-egg-svg" xmlns="http://www.w3.org/2000/svg" xmlns:xlink="http://www.w3.org/1999/xlink" x="0px" y="0px" viewBox="0 0 512 512" >
    <defs>
        <style>
            .easter-egg-path {
                fill: black;
            }
            #actual-egg--hovered {
                filter: url('#easter-egg-glow');
                opacity: 0;
            }
        </style>
        <filter id="easter-egg-glow">
            <feGaussianBlur stdDeviation="10.5" result="coloredBlur"/>
            <feMerge>
                <feMergeNode in="coloredBlur"/>
                <feMergeNode in="SourceGraphic"/>
            </feMerge>
        </filter>
    </defs>
    <!-- comment -->
    <title>Easter egg icon made by "Those Icons" (https://www.flaticon.com/authors/those-icons) and is licensed by Creative Commons 3.0 BY</title>
    <path id="actual-egg" class="easter-egg-path" d="M256,0C147.01,0,64,213.333,64,320.094C64,425.906,150.135,512,256,512s192-86.094,192-191.906    C448,213.333,364.99,0,256,0z M256,21.333c35.32,0,73.264,31.286,106.168,86.544l-0.897-0.378c-2.646-1.104-5.625-1.104-8.271,0    l-46.542,19.594L259.927,107.5c-2.646-1.104-5.625-1.104-8.271,0l-46.531,19.594L158.667,107.5    c-2.646-1.104-5.646-1.115-8.292,0.01l-0.444,0.188C182.811,52.547,220.716,21.333,256,21.333z M133.865,137.626l20.656-8.72    l46.458,19.594c2.646,1.104,5.635,1.104,8.281,0l46.531-19.594l46.531,19.594c1.323,0.552,2.729,0.833,4.135,0.833    s2.813-0.281,4.135-0.833l46.542-19.594l21.064,8.853c18.978,38.758,33.71,82.776,41.704,122.962l-11.997,5.039l-46.635-19.594    c-2.646-1.104-5.625-1.104-8.271,0l-46.542,19.594l-46.531-19.594c-2.646-1.104-5.625-1.104-8.271,0l-46.531,19.594    l-46.458-19.594c-2.646-1.104-5.646-1.115-8.292,0.01l-46.396,19.583l-11.887-5.012    C100.095,220.51,114.852,176.423,133.865,137.626z M256,490.667c-56.186,0-105.966-27.397-137.083-69.398l35.604-15.029    l46.458,19.594c2.646,1.104,5.635,1.104,8.281,0l46.531-19.594l46.531,19.594c1.323,0.552,2.729,0.833,4.135,0.833    s2.813-0.281,4.135-0.833l46.542-19.594l35.905,15.086C361.921,463.294,312.16,490.667,256,490.667z M361.271,384.833    c-2.646-1.104-5.625-1.104-8.271,0l-46.542,19.594l-46.531-19.594c-2.646-1.104-5.625-1.104-8.271,0l-46.531,19.594    l-46.458-19.594c-2.646-1.104-5.646-1.115-8.292,0.01l-43.319,18.285c-13.785-24.599-21.723-52.893-21.723-83.035    c0-11.555,1.165-24.366,3.052-37.75l11.448,4.823c2.667,1.104,5.646,1.115,8.292-0.01l46.396-19.583l46.458,19.594    c2.646,1.104,5.635,1.104,8.281,0l46.531-19.594l46.531,19.594c1.323,0.552,2.729,0.833,4.135,0.833s2.813-0.281,4.135-0.833    l46.542-19.594l46.635,19.594c2.646,1.104,5.625,1.104,8.271,0l11.569-4.861c1.891,13.398,3.056,26.223,3.056,37.788    c0,30.161-7.949,58.47-21.75,83.079L361.271,384.833z"/>
    <path id="actual-egg--hovered" class="easter-egg-path" d="M256,0C147.01,0,64,213.333,64,320.094C64,425.906,150.135,512,256,512s192-86.094,192-191.906    C448,213.333,364.99,0,256,0z M256,21.333c35.32,0,73.264,31.286,106.168,86.544l-0.897-0.378c-2.646-1.104-5.625-1.104-8.271,0    l-46.542,19.594L259.927,107.5c-2.646-1.104-5.625-1.104-8.271,0l-46.531,19.594L158.667,107.5    c-2.646-1.104-5.646-1.115-8.292,0.01l-0.444,0.188C182.811,52.547,220.716,21.333,256,21.333z M133.865,137.626l20.656-8.72    l46.458,19.594c2.646,1.104,5.635,1.104,8.281,0l46.531-19.594l46.531,19.594c1.323,0.552,2.729,0.833,4.135,0.833    s2.813-0.281,4.135-0.833l46.542-19.594l21.064,8.853c18.978,38.758,33.71,82.776,41.704,122.962l-11.997,5.039l-46.635-19.594    c-2.646-1.104-5.625-1.104-8.271,0l-46.542,19.594l-46.531-19.594c-2.646-1.104-5.625-1.104-8.271,0l-46.531,19.594    l-46.458-19.594c-2.646-1.104-5.646-1.115-8.292,0.01l-46.396,19.583l-11.887-5.012    C100.095,220.51,114.852,176.423,133.865,137.626z M256,490.667c-56.186,0-105.966-27.397-137.083-69.398l35.604-15.029    l46.458,19.594c2.646,1.104,5.635,1.104,8.281,0l46.531-19.594l46.531,19.594c1.323,0.552,2.729,0.833,4.135,0.833    s2.813-0.281,4.135-0.833l46.542-19.594l35.905,15.086C361.921,463.294,312.16,490.667,256,490.667z M361.271,384.833    c-2.646-1.104-5.625-1.104-8.271,0l-46.542,19.594l-46.531-19.594c-2.646-1.104-5.625-1.104-8.271,0l-46.531,19.594    l-46.458-19.594c-2.646-1.104-5.646-1.115-8.292,0.01l-43.319,18.285c-13.785-24.599-21.723-52.893-21.723-83.035    c0-11.555,1.165-24.366,3.052-37.75l11.448,4.823c2.667,1.104,5.646,1.115,8.292-0.01l46.396-19.583l46.458,19.594    c2.646,1.104,5.635,1.104,8.281,0l46.531-19.594l46.531,19.594c1.323,0.552,2.729,0.833,4.135,0.833s2.813-0.281,4.135-0.833    l46.542-19.594l46.635,19.594c2.646,1.104,5.625,1.104,8.271,0l11.569-4.861c1.891,13.398,3.056,26.223,3.056,37.788    c0,30.161-7.949,58.47-21.75,83.079L361.271,384.833z"/>

</svg>
